<svg width="6" height="6" viewBox="0 0 6 6" fill="none" xmlns="http://www.w3.org/2000/svg">
<rect width="6" height="6" fill="#1E1E1E"/>
<g id="Paywall fin onboarding">
<rect width="402" height="1802" transform="translate(-300 -624)" fill="#FEF5E9"/>
<path id="Star 6" d="M2.36853 0.435247C2.58951 -0.145082 3.41049 -0.145082 3.63147 0.435247L4.05678 1.5522C4.12538 1.73235 4.26765 1.87462 4.4478 1.94322L5.56475 2.36853C6.14508 2.58951 6.14508 3.41049 5.56475 3.63147L4.4478 4.05678C4.26765 4.12538 4.12538 4.26765 4.05678 4.4478L3.63147 5.56475C3.41049 6.14508 2.58951 6.14508 2.36853 5.56475L1.94322 4.4478C1.87462 4.26765 1.73235 4.12538 1.5522 4.05678L0.435247 3.63147C-0.145082 3.41049 -0.145082 2.58951 0.435247 2.36853L1.5522 1.94322C1.73235 1.87462 1.87462 1.73235 1.94322 1.5522L2.36853 0.435247Z" fill="black"/>
</g>
</svg>
